<?xml version="1.0" standalone="no"?><!DOCTYPE svg PUBLIC "-//W3C//DTD SVG 1.1//EN" "http://www.w3.org/Graphics/SVG/1.1/DTD/svg11.dtd"><svg t="1555396913588" class="icon" style="" viewBox="0 0 1024 1024" version="1.1" xmlns="http://www.w3.org/2000/svg" p-id="1503" xmlns:xlink="http://www.w3.org/1999/xlink" width="200" height="200"><defs><style type="text/css"></style></defs><path d="M923.648 4.608H99.84C46.08 4.608 2.56 48.128 2.56 101.376v823.808c0 53.248 43.52 96.768 96.768 96.768h823.808c53.248 0 96.768-43.52 96.768-96.768V101.376C1020.416 48.128 976.896 4.608 923.648 4.608z" fill="#EA6384" p-id="1504"></path><path d="M742.912 860.16c114.176-75.264 189.952-204.8 189.952-351.744 0-232.448-188.416-420.864-420.864-420.864S90.624 275.968 90.624 508.416s188.416 420.864 420.864 420.864c43.52 0 85.504-6.656 124.928-18.944 14.336-1.536 31.232 5.12 72.192 20.48 57.856 26.112 105.984-14.848 116.736-35.328-45.568 1.024-72.704-23.04-82.432-35.328z" fill="#FFFFFF" p-id="1505"></path><path d="M275.968 356.864c-16.896 27.648-29.184 58.368-27.648 92.672 3.584 87.552 73.728 143.872 143.872 145.92 30.72 1.536 59.904-6.656 87.552-20.48 25.6-13.824 54.784 0 59.904 29.184 3.584 15.36-5.12 32.768-20.48 40.96-20.48 11.776-40.96 22.528-63.488 25.6-13.824 1.536-16.896 8.704-15.36 20.48 1.536 24.064 0 48.128 0 70.144 0 25.6-16.896 43.008-39.424 43.008s-39.424-18.944-39.424-43.008V686.08c0-10.24-3.584-13.824-11.776-15.36-80.384-18.944-133.632-67.072-164.864-140.8-1.536-5.12-5.12-8.704-3.584-15.36 0-24.064 6.656-46.08 16.896-67.072 15.36-34.304 37.888-65.024 67.072-87.552 2.048-3.072 5.632-6.144 10.752-3.072z" fill="#E75376" p-id="1506"></path><path d="M454.144 218.112c89.088 22.528 145.92 78.848 173.056 166.4 5.12 18.944 8.704 35.84 6.656 54.784 0 20.48-16.896 39.424-39.424 39.424-20.48 0-40.96-16.896-40.96-37.888-3.584-70.144-48.128-126.976-114.688-143.872-53.248-13.824-99.328 0-140.8 35.84-1.536 1.536-5.12 3.584-6.656 5.12-5.12-6.656 0-10.24 3.584-15.36 22.528-34.304 51.2-61.952 87.552-80.384 22.016-12.288 46.08-20.48 71.68-24.064z" fill="#D95271" p-id="1507"></path><path d="M829.952 435.712c54.784 85.504 15.36 200.704-82.432 233.472-8.704 3.584-10.24 6.656-10.24 15.36v78.848c0 24.064-16.896 43.008-39.424 43.008s-39.424-16.896-40.96-40.96V686.08c0-10.24-3.584-13.824-11.776-15.36-6.656-1.536-13.824-6.656-22.528-8.704 0-6.656 5.12-6.656 8.704-6.656 54.784-5.12 91.136-37.888 119.808-80.384 1.536-3.584 5.12-6.656 6.656-8.704 22.528-20.48 43.008-43.008 53.248-72.192 5.12-13.824 10.24-29.184 10.24-44.544 3.584-6.656 1.536-13.824 8.704-13.824z" fill="#E96A89" p-id="1508"></path><path d="M454.144 218.112c-5.12 6.656-11.776 5.12-18.944 6.656-59.904 16.896-108.032 49.664-140.8 104.448-1.536 1.536-3.584 5.12-3.584 8.704-5.12 6.656-10.24 11.776-15.36 18.944-13.824 5.12-24.064 15.36-32.768 25.6-32.768 37.888-54.784 78.848-59.904 128.512 0 1.536-1.536 3.584-1.536 3.584-22.528-61.952-15.36-121.856 13.824-178.176 44.544-87.552 138.752-135.68 236.544-123.392 7.168 1.536 15.872 3.584 22.528 5.12z" fill="#C54C71" p-id="1509"></path><path d="M829.952 435.712c-3.584 13.824-1.536 29.184-6.656 43.008-11.776 34.304-29.184 63.488-61.952 83.968 15.36-29.184 16.896-58.368-1.536-85.504-13.824-20.48-34.304-30.72-59.904-30.72H680.96c-18.944 0-35.84-13.824-39.424-32.768-3.584-20.48 6.656-39.424 27.648-46.08 39.424-10.24 75.264-1.536 109.568 18.944 19.968 9.728 38.912 27.136 51.2 49.152z" fill="#EF96AC" p-id="1510"></path><path d="M754.176 571.392c-8.704 22.528-25.6 37.888-43.008 51.2-22.528 18.944-48.128 29.184-77.312 30.72-3.584 0-10.24 5.12-11.776 8.704-49.664-25.6-72.192-68.608-78.848-123.392-3.584-24.064 16.896-40.96 34.304-43.008 24.064-1.536 40.96 10.24 46.08 34.304 10.24 56.832 70.144 82.432 118.272 51.2 4.096-1.024 7.168-4.608 12.288-9.728z" fill="#ED879F" p-id="1511"></path><path d="M660.48 649.728s-38.4 8.192-53.248 4.096c16.896 10.24 33.28 17.92 39.424 19.968 4.608 2.048 9.216 4.096 9.728 17.92s4.096-41.984 4.096-41.984z" fill="#E96A89" p-id="1512"></path><path d="M171.008 475.136s9.216 43.52 11.264 49.152c0.512-11.264 2.048-46.592 3.072-48.64 1.536-2.56-14.336-0.512-14.336-0.512z" fill="#C54C71" p-id="1513"></path></svg>