<?xml version="1.0" standalone="no"?><!DOCTYPE svg PUBLIC "-//W3C//DTD SVG 1.1//EN" "http://www.w3.org/Graphics/SVG/1.1/DTD/svg11.dtd"><svg t="1555396906271" class="icon" style="" viewBox="0 0 1024 1024" version="1.1" xmlns="http://www.w3.org/2000/svg" p-id="1378" xmlns:xlink="http://www.w3.org/1999/xlink" width="200" height="200"><defs><style type="text/css"></style></defs><path d="M0 0m209.454545 0l605.09091 0q209.454545 0 209.454545 209.454545l0 605.09091q0 209.454545-209.454545 209.454545l-605.09091 0q-209.454545 0-209.454545-209.454545l0-605.09091q0-209.454545 209.454545-209.454545Z" fill="#03A7FD" p-id="1379"></path><path d="M356.514909 510.766545s34.746182-7.098182 39.703273-2.839272l17.012363 126.231272-28.346181 3.537455-28.392728-126.929455zM369.989818 441.274182h19.851637l5.678545 48.942545h-18.455273zM347.298909 446.254545l18.432-1.62909 5.678546 47.895272-16.128 2.653091zM395.52 386.629818s40.424727-4.258909 41.821091 0l19.874909 238.266182H426.356364l-30.836364-238.266182zM466.432 512.209455h39.005091v128.34909h-28.392727zM485.934545 446.952727h23.272728v48.221091h-23.272728zM462.173091 446.952727h23.272727v48.221091h-23.272727zM227.444364 544.116364L216.808727 349.090909c-6.353455 5.678545-53.899636 21.271273-53.899636 21.271273 16.267636 56.040727 38.306909 289.326545 38.306909 289.326545 111.685818 3.560727 158.138182-45.335273 160.954182-56.715636 1.722182-6.749091 1.722182-13.824 0-20.573091-26.949818-44.683636-134.725818-38.283636-134.725818-38.283636z m33.722181 84.386909l-7.00509-55.528728 51.595636 21.713455-44.590546 33.815273zM717.498182 582.4c-26.949818-44.683636-134.749091-38.283636-134.749091-38.283636L572.043636 349.090909c-6.306909 5.678545-53.783273 21.271273-53.783272 21.271273 16.267636 56.017455 38.306909 289.326545 38.306909 289.326545 111.639273 3.560727 158.138182-45.335273 160.930909-56.715636 1.698909-6.749091 1.698909-13.824 0-20.573091z m-101.026909 46.126545l-7.005091-55.552 51.595636 21.713455-44.590545 33.838545zM711.796364 510.766545s34.746182-7.098182 39.726545-2.839272l16.989091 126.231272-28.392727 3.560728-28.322909-126.952728zM725.294545 441.274182h19.851637l5.655273 48.942545h-18.432zM702.603636 446.254545l18.432-1.62909 5.655273 47.895272-16.128 2.653091zM750.801455 386.629818s40.424727-4.258909 41.844363 0l19.851637 238.266182h-30.836364l-30.859636-238.266182zM821.736727 512.209455h38.981818v128.34909h-28.346181zM841.239273 446.952727h23.272727v48.221091h-23.272727zM817.477818 446.952727h23.272727v48.221091h-23.272727z" fill="#FFFFFF" p-id="1380"></path></svg>