<?xml version="1.0" encoding="utf-8"?>
<!-- Generator: Adobe Illustrator 19.0.0, SVG Export Plug-In . SVG Version: 6.00 Build 0)  -->
<svg version="1.1" id="图层_1" xmlns="http://www.w3.org/2000/svg" xmlns:xlink="http://www.w3.org/1999/xlink" x="0px" y="0px"
	 viewBox="0 0 168.4 50" style="enable-background:new 0 0 168.4 50;" xml:space="preserve">
<style type="text/css">
	.st0{fill:#679A18;}
	.st1{fill:#727171;}
	.st2{fill:#73AB1F;}
	.st3{fill:#FFFFFF;}
</style>
<g id="XMLID_10_">
	<g id="XMLID_85_">
		<path id="XMLID_105_" class="st0" d="M53,15.3v-3h3v3H53z M53,34.8V18.3h3v16.5H53z"/>
		<path id="XMLID_102_" class="st0" d="M69,32.7c-1.8,1.7-3.5,2.5-5.2,2.5c-1.4,0-2.5-0.4-3.4-1.3C59.5,33,59,32,59,30.7
			c0-1.8,0.8-3.2,2.3-4.2c1.5-1,3.7-1.5,6.5-1.5h0.7v-2c0-1.9-1-2.9-3-2.9c-1.6,0-3.2,0.5-5.1,1.5v-2.5c2-0.8,3.9-1.2,5.7-1.2
			c1.8,0,3.2,0.4,4.1,1.3c0.9,0.8,1.3,2.1,1.3,3.9v7.5c0,1.7,0.5,2.6,1.6,2.6c0.1,0,0.3,0,0.6-0.1l0.2,1.7c-0.7,0.3-1.4,0.5-2.3,0.5
			C70.2,35.2,69.3,34.4,69,32.7z M68.5,31.1v-4.3l-1,0c-1.7,0-3,0.3-4,0.9c-1,0.6-1.5,1.4-1.5,2.5c0,0.7,0.3,1.3,0.8,1.8
			c0.5,0.5,1.1,0.7,1.9,0.7C65.9,32.7,67.2,32.2,68.5,31.1z"/>
		<path id="XMLID_100_" class="st0" d="M76.1,34.8v-24h3v24H76.1z"/>
		<path id="XMLID_98_" class="st0" d="M84,34.8V12.3h4.4l6.2,17.4l6.4-17.4h4v22.5h-3V16.5l-6.2,16.8h-3.1l-6-16.8v18.3H84z"/>
		<path id="XMLID_95_" class="st0" d="M116.7,32.7c-1.8,1.7-3.5,2.5-5.2,2.5c-1.4,0-2.5-0.4-3.4-1.3c-0.9-0.9-1.4-1.9-1.4-3.2
			c0-1.8,0.8-3.2,2.3-4.2c1.5-1,3.7-1.5,6.5-1.5h0.7v-2c0-1.9-1-2.9-3-2.9c-1.6,0-3.2,0.5-5.1,1.5v-2.5c2-0.8,3.9-1.2,5.7-1.2
			c1.8,0,3.2,0.4,4.1,1.3c0.9,0.8,1.3,2.1,1.3,3.9v7.5c0,1.7,0.5,2.6,1.6,2.6c0.1,0,0.3,0,0.6-0.1l0.2,1.7c-0.7,0.3-1.4,0.5-2.3,0.5
			C118,35.2,117.1,34.4,116.7,32.7z M116.2,31.1v-4.3l-1,0c-1.7,0-3,0.3-4,0.9c-1,0.6-1.5,1.4-1.5,2.5c0,0.7,0.3,1.3,0.8,1.8
			c0.5,0.5,1.1,0.7,1.9,0.7C113.6,32.7,114.9,32.2,116.2,31.1z"/>
		<path id="XMLID_93_" class="st0" d="M122,34.2v-2.8c2,1,3.7,1.5,5.1,1.5c0.9,0,1.6-0.2,2.1-0.7c0.6-0.5,0.9-1.1,0.9-1.8
			c0-1-0.8-1.9-2.4-2.5l-1.7-0.7c-2.6-1.1-3.9-2.6-3.9-4.6c0-1.4,0.5-2.6,1.5-3.4c1-0.8,2.4-1.2,4.2-1.2c0.9,0,2.1,0.1,3.4,0.4
			l0.6,0.1v2.5c-1.7-0.5-3-0.7-4-0.7c-0.9,0-1.6,0.2-2.1,0.6c-0.5,0.4-0.8,0.9-0.8,1.5c0,0.9,0.7,1.7,2.2,2.3l1.4,0.6
			c1.6,0.7,2.8,1.4,3.5,2.2c0.7,0.8,1,1.7,1,2.9c0,1.5-0.6,2.6-1.7,3.6c-1.1,0.9-2.6,1.4-4.4,1.4C125.6,35.2,124,34.9,122,34.2z"/>
		<path id="XMLID_91_" class="st0" d="M143.1,34.8c-0.9,0.3-1.7,0.4-2.4,0.4c-1.5,0-2.7-0.4-3.6-1.3c-0.9-0.9-1.3-2.1-1.3-3.6v-9.7
			h-2.1v-2.3h2.1v-3l3-0.3v3.3h4.3v2.3h-4.3v9.2c0,2.2,0.9,3.2,2.8,3.2c0.4,0,0.9-0.1,1.4-0.2V34.8z"/>
		<path id="XMLID_88_" class="st0" d="M156.8,34.3c-2,0.6-3.7,0.9-5.2,0.9c-2.4,0-4.4-0.8-6-2.4c-1.5-1.6-2.3-3.7-2.3-6.3
			c0-2.5,0.7-4.6,2-6.2c1.4-1.6,3.1-2.4,5.2-2.4c2,0,3.5,0.7,4.6,2.1c1.1,1.4,1.6,3.4,1.6,6.1l0,0.9h-10.4c0.4,3.9,2.4,5.9,5.8,5.9
			c1.2,0,2.8-0.3,4.6-1V34.3z M146.6,24.8h7.3c0-3.1-1.1-4.6-3.4-4.6C148.1,20.2,146.8,21.7,146.6,24.8z"/>
		<path id="XMLID_86_" class="st0" d="M159.3,34.8V18.3h3v3.1c1.2-2.3,2.9-3.5,5.2-3.5c0.3,0,0.6,0,1,0.1v2.8
			c-0.5-0.2-1-0.3-1.4-0.3c-1.9,0-3.5,1.1-4.8,3.4v10.9H159.3z"/>
	</g>
	<g id="XMLID_59_">
		<path id="XMLID_82_" class="st1" d="M114.5,43.9c0-0.3,0-0.8,0-1.2v-5.5h0.8v2.9h0c0.3-0.5,0.8-0.8,1.6-0.8c1.2,0,2,0.9,2,2.3
			c0,1.6-1.1,2.4-2.1,2.4c-0.7,0-1.2-0.3-1.6-0.9h0l0,0.8H114.5z M115.3,42.1c0,0.1,0,0.2,0,0.3c0.2,0.6,0.7,1,1.3,1
			c0.9,0,1.4-0.7,1.4-1.8c0-0.9-0.5-1.7-1.4-1.7c-0.6,0-1.1,0.4-1.3,1c0,0.1,0,0.2,0,0.3V42.1z"/>
		<path id="XMLID_80_" class="st1" d="M120.1,39.4l1,2.7c0.1,0.3,0.2,0.7,0.3,0.9h0c0.1-0.3,0.2-0.6,0.3-1l0.9-2.7h0.9l-1.3,3.2
			c-0.6,1.6-1,2.4-1.6,2.9c-0.4,0.4-0.8,0.5-1,0.5l-0.2-0.7c0.2-0.1,0.5-0.2,0.7-0.4c0.2-0.2,0.5-0.5,0.7-0.9c0-0.1,0.1-0.2,0.1-0.2
			s0-0.1-0.1-0.2l-1.7-4.2H120.1z"/>
		<path id="XMLID_77_" class="st1" d="M127,41.9l-0.7,2h-0.9l2.2-6.3h1l2.2,6.3H130l-0.7-2H127z M129.1,41.3l-0.6-1.8
			c-0.1-0.4-0.2-0.8-0.3-1.2h0c-0.1,0.4-0.2,0.8-0.3,1.1l-0.6,1.8H129.1z"/>
		<path id="XMLID_74_" class="st1" d="M135.6,37.2v5.5c0,0.4,0,0.9,0,1.2h-0.8l0-0.8h0c-0.3,0.5-0.8,0.9-1.6,0.9c-1.1,0-2-0.9-2-2.3
			c0-1.5,1-2.4,2.1-2.4c0.7,0,1.2,0.3,1.4,0.7h0v-2.7H135.6z M134.8,41.2c0-0.1,0-0.2,0-0.3c-0.1-0.5-0.6-1-1.2-1
			c-0.9,0-1.4,0.8-1.4,1.8c0,0.9,0.5,1.7,1.4,1.7c0.6,0,1.1-0.4,1.2-1c0-0.1,0-0.2,0-0.4V41.2z"/>
		<path id="XMLID_72_" class="st1" d="M142.3,41.1c0-0.9-0.1-1.9-0.1-2.7h0c-0.2,0.7-0.5,1.5-0.8,2.4l-1.2,3.1h-0.6l-1.1-3
			c-0.3-0.9-0.6-1.7-0.8-2.5h0c0,0.8-0.1,1.9-0.1,2.8l-0.2,2.7h-0.8l0.5-6.3h1.1l1.1,3.1c0.3,0.8,0.5,1.5,0.7,2.1h0
			c0.2-0.6,0.4-1.3,0.7-2.1l1.2-3.1h1.1l0.4,6.3h-0.8L142.3,41.1z"/>
		<path id="XMLID_69_" class="st1" d="M147,43.9l-0.1-0.6h0c-0.3,0.4-0.8,0.7-1.4,0.7c-0.9,0-1.4-0.6-1.4-1.3c0-1.1,1-1.7,2.8-1.7
			v-0.1c0-0.4-0.1-1.1-1.1-1.1c-0.4,0-0.9,0.1-1.2,0.3l-0.2-0.5c0.4-0.2,0.9-0.4,1.5-0.4c1.4,0,1.8,1,1.8,1.9v1.7
			c0,0.4,0,0.8,0.1,1.1H147z M146.8,41.6c-0.9,0-2,0.1-2,1c0,0.5,0.4,0.8,0.8,0.8c0.6,0,1-0.4,1.1-0.8c0-0.1,0-0.2,0-0.3V41.6z"/>
		<path id="XMLID_67_" class="st1" d="M148.7,43.1c0.3,0.2,0.7,0.3,1.1,0.3c0.6,0,0.9-0.3,0.9-0.7c0-0.4-0.2-0.6-0.9-0.8
			c-0.8-0.3-1.2-0.7-1.2-1.3c0-0.7,0.6-1.3,1.6-1.3c0.5,0,0.9,0.1,1.2,0.3l-0.2,0.6c-0.2-0.1-0.5-0.3-1-0.3c-0.5,0-0.8,0.3-0.8,0.6
			c0,0.4,0.3,0.5,0.9,0.8c0.8,0.3,1.2,0.7,1.2,1.4c0,0.8-0.6,1.4-1.8,1.4c-0.5,0-1-0.1-1.3-0.3L148.7,43.1z"/>
		<path id="XMLID_65_" class="st1" d="M153.4,38.1v1.3h1.2V40h-1.2v2.5c0,0.6,0.2,0.9,0.6,0.9c0.2,0,0.4,0,0.5-0.1l0,0.6
			c-0.2,0.1-0.4,0.1-0.8,0.1c-0.4,0-0.7-0.1-0.9-0.3c-0.2-0.2-0.3-0.6-0.3-1.2V40h-0.7v-0.6h0.7v-1.1L153.4,38.1z"/>
		<path id="XMLID_62_" class="st1" d="M155.8,41.8c0,1.1,0.8,1.6,1.6,1.6c0.6,0,1-0.1,1.3-0.2l0.1,0.6c-0.3,0.1-0.8,0.3-1.6,0.3
			c-1.4,0-2.3-0.9-2.3-2.3c0-1.4,0.8-2.5,2.2-2.5c1.5,0,1.9,1.3,1.9,2.1c0,0.2,0,0.3,0,0.4H155.8z M158.3,41.2
			c0-0.5-0.2-1.3-1.2-1.3c-0.9,0-1.2,0.8-1.3,1.3H158.3z"/>
		<path id="XMLID_60_" class="st1" d="M160,40.8c0-0.5,0-1,0-1.4h0.7l0,0.9h0c0.2-0.6,0.7-1,1.3-1c0.1,0,0.2,0,0.2,0v0.8
			c-0.1,0-0.2,0-0.3,0c-0.6,0-1,0.4-1.1,1.1c0,0.1,0,0.2,0,0.4v2.4H160V40.8z"/>
	</g>
	<g id="XMLID_47_">
		<g id="XMLID_51_">
			<g id="XMLID_83_">
				<path id="XMLID_84_" class="st2" d="M5,0C2.2,0,0,2.2,0,5v45h45c2.8,0,5-2.2,5-5V0H5z"/>
			</g>
		</g>
		<polygon id="XMLID_5_" class="st0" points="26.5,32.9 6.5,44.5 33.9,10.9 50,30 33.9,0 0,50 46.5,29.8 21.5,29.8 		"/>
	</g>
	<g id="XMLID_15_">
		<path id="XMLID_45_" class="st3" d="M3.3,34.4v-3.2C5.8,32.4,7.9,33,9.5,33c1.2,0,2.3-0.3,3-1c0.8-0.7,1.1-1.5,1.1-2.6
			c0-0.9-0.3-1.6-0.8-2.3c-0.5-0.6-1.4-1.3-2.8-2.1l-1.6-0.9c-1.9-1.1-3.3-2.1-4.1-3.1c-0.8-1-1.2-2.1-1.2-3.4
			c0-1.7,0.6-3.2,1.9-4.3c1.3-1.1,2.9-1.7,4.8-1.7c1.7,0,3.6,0.3,5.5,0.9v2.9c-2.4-0.9-4.1-1.4-5.3-1.4c-1.1,0-2,0.3-2.7,0.9
			c-0.7,0.6-1.1,1.3-1.1,2.2c0,0.8,0.3,1.4,0.8,2c0.5,0.6,1.5,1.3,2.9,2.1l1.6,0.9c1.9,1.1,3.3,2.2,4.1,3.1c0.8,1,1.2,2.2,1.2,3.5
			c0,2-0.7,3.5-2.2,4.7c-1.4,1.2-3.4,1.8-5.7,1.8C7.6,35.4,5.6,35,3.3,34.4z"/>
		<path id="XMLID_40_" class="st3" d="M25.8,35.2c-2.4,0-4.3-0.8-5.8-2.3c-1.4-1.6-2.1-3.7-2.1-6.3c0-2.7,0.7-4.8,2.1-6.3
			c1.4-1.5,3.3-2.3,5.8-2.3c2.4,0,4.3,0.8,5.8,2.3c1.4,1.5,2.1,3.6,2.1,6.3c0,2.7-0.7,4.8-2.1,6.3C30.1,34.4,28.2,35.2,25.8,35.2z
			 M25.8,32.9c1.5,0,2.6-0.6,3.5-1.7c0.8-1.1,1.2-2.7,1.2-4.7c0-2-0.4-3.6-1.2-4.7c-0.8-1.1-2-1.7-3.5-1.7c-1.5,0-2.6,0.6-3.5,1.7
			c-0.8,1.1-1.2,2.7-1.2,4.7c0,2,0.4,3.6,1.2,4.7C23.1,32.4,24.3,32.9,25.8,32.9z"/>
		<path id="XMLID_16_" class="st3" d="M47.5,34.3c-1.9,0.6-3.6,0.9-5,0.9c-2.2,0-4.1-0.8-5.6-2.5c-1.5-1.7-2.2-3.7-2.2-6.3
			c0-2.7,0.7-4.8,2.2-6.3c1.5-1.5,3.5-2.3,6.1-2.3c1.3,0,2.7,0.2,4.3,0.5V21c-1.7-0.5-3.1-0.7-4.1-0.7c-1.5,0-2.8,0.6-3.7,1.7
			c-0.9,1.2-1.4,2.7-1.4,4.6c0,1.9,0.5,3.4,1.4,4.5c1,1.1,2.2,1.7,3.7,1.7c1.4,0,2.8-0.3,4.2-1.1V34.3z"/>
	</g>
</g>
</svg>
