<?xml version="1.0" standalone="no"?><!DOCTYPE svg PUBLIC "-//W3C//DTD SVG 1.1//EN" "http://www.w3.org/Graphics/SVG/1.1/DTD/svg11.dtd"><svg t="1496824240704" class="icon" style="" viewBox="0 0 1024 1024" version="1.1" xmlns="http://www.w3.org/2000/svg" p-id="9056" xmlns:xlink="http://www.w3.org/1999/xlink" width="200" height="200"><defs><style type="text/css"></style></defs><path d="M290.048 291.1232c-22.8608 0-45.8496 15.104-45.8496 37.9648 0 22.8608 22.9888 38.0928 45.8496 38.0928 22.8352 0 37.9904-15.2576 37.9904-38.0928 0-22.8864-15.2064-37.9648-37.9904-37.9648m312.0384 220.8256c-15.1552 0-30.4128 15.2576-30.4128 30.4384 0 15.4112 15.2832 30.4384 30.4128 30.4384 23.0144 0 38.1184-15.0528 38.1184-30.4384 0-15.1808-15.104-30.4384-38.1184-30.4384M1024 155.8784A155.904 155.904 0 0 0 868.096 0H155.8784A155.904 155.904 0 0 0 0 155.8784V868.096A155.904 155.904 0 0 0 155.8784 1024H868.096A155.904 155.904 0 0 0 1024 868.096V155.8784M388.9152 679.6288c-37.9648 0-68.5568-7.7824-106.624-15.2832L175.872 717.696l30.4384-91.5712C130.0992 572.8512 84.48 504.2432 84.48 420.608c0-144.8704 137.0624-258.9184 304.4352-258.9184 149.7088 0 280.832 91.1616 307.1488 213.7856-9.6768-1.0752-19.456-1.7664-29.3376-1.7664-144.5632 0-258.7904 107.9296-258.7904 240.9216 0 22.0928 3.4816 43.4176 9.4208 63.7696-9.3952 0.7168-18.9184 1.2288-28.4416 1.2288m449.0496 106.624l22.8864 76.0576-83.5072-45.696c-30.4384 7.6032-61.056 15.2832-91.3408 15.2832-144.8192 0-258.9184-99.0208-258.9184-220.928 0-121.728 114.0992-220.9024 258.9184-220.9024 136.8064 0 258.5856 99.2 258.5856 220.9024 0.0256 68.6592-45.5424 129.4336-106.624 175.2832m-68.4032-274.304c-15.0784 0-30.2592 15.2576-30.2592 30.4384 0 15.4112 15.1808 30.4384 30.2592 30.4384 22.8096 0 38.0928-15.0528 38.0928-30.4384 0-15.1808-15.3344-30.4384-38.0928-30.4384m-266.496-144.7424c22.9376 0 38.1184-15.2576 38.1184-38.0928 0-22.912-15.2064-37.9648-38.1184-37.9648-22.8352 0-45.696 15.104-45.696 37.9648 0 22.8352 22.8864 38.0928 45.696 38.0928m0 0" fill="#4FB348" p-id="9057"></path></svg>